<mxfile host="65bd71144e">
    <diagram id="fjN8D4Odn0497USpxgly" name="Page-1">
        <mxGraphModel dx="2487" dy="779" grid="1" gridSize="10" guides="1" tooltips="1" connect="1" arrows="1" fold="1" page="1" pageScale="1" pageWidth="1169" pageHeight="827" background="#FFFFFF" math="0" shadow="0">
            <root>
                <mxCell id="0"/>
                <mxCell id="1" parent="0"/>
                <mxCell id="335" value="" style="rounded=0;whiteSpace=wrap;html=1;verticalAlign=top;" parent="1" vertex="1">
                    <mxGeometry x="-971" y="380" width="780" height="120" as="geometry"/>
                </mxCell>
                <mxCell id="336" style="edgeStyle=elbowEdgeStyle;rounded=0;html=1;fillColor=#fff2cc;strokeColor=#d6b656;" parent="1" source="385" target="338" edge="1">
                    <mxGeometry relative="1" as="geometry">
                        <mxPoint x="-981" y="319" as="sourcePoint"/>
                        <mxPoint x="-1100" y="434" as="targetPoint"/>
                        <Array as="points">
                            <mxPoint x="-960" y="319"/>
                            <mxPoint x="-900" y="269"/>
                            <mxPoint x="-970" y="319"/>
                            <mxPoint x="-1060" y="389"/>
                        </Array>
                    </mxGeometry>
                </mxCell>
                <mxCell id="337" value="No" style="edgeStyle=elbowEdgeStyle;rounded=0;html=1;" parent="1" source="338" target="339" edge="1">
                    <mxGeometry relative="1" as="geometry">
                        <mxPoint x="-975" y="434" as="targetPoint"/>
                        <mxPoint x="-970" y="434" as="sourcePoint"/>
                    </mxGeometry>
                </mxCell>
                <mxCell id="338" value="&lt;b&gt;path&lt;/b&gt;&lt;br&gt;contains&lt;br&gt;CN?" style="rhombus;whiteSpace=wrap;html=1;" parent="1" vertex="1">
                    <mxGeometry x="-940" y="279" width="80" height="80" as="geometry"/>
                </mxCell>
                <mxCell id="339" value="Foreach&lt;br&gt;CN&lt;br&gt;as &lt;b&gt;rg&lt;/b&gt;" style="shape=hexagon;perimeter=hexagonPerimeter2;whiteSpace=wrap;html=1;fixedSize=1;" parent="1" vertex="1">
                    <mxGeometry x="-960" y="399.75" width="120" height="80.5" as="geometry"/>
                </mxCell>
                <mxCell id="340" style="edgeStyle=elbowEdgeStyle;rounded=0;html=1;" parent="1" source="339" target="343" edge="1">
                    <mxGeometry relative="1" as="geometry">
                        <mxPoint x="-830" y="435.75" as="targetPoint"/>
                        <mxPoint x="-650" y="785.75" as="sourcePoint"/>
                        <Array as="points">
                            <mxPoint x="-830" y="439.75"/>
                            <mxPoint x="-750" y="500.75"/>
                        </Array>
                    </mxGeometry>
                </mxCell>
                <mxCell id="341" value="&lt;b&gt;path&lt;br&gt;&lt;/b&gt;contains&lt;br&gt;CS?" style="rhombus;whiteSpace=wrap;html=1;" parent="1" vertex="1">
                    <mxGeometry x="-790" y="278.5" width="80" height="80" as="geometry"/>
                </mxCell>
                <mxCell id="342" value="No" style="edgeStyle=elbowEdgeStyle;rounded=0;html=1;" parent="1" source="341" target="343" edge="1">
                    <mxGeometry relative="1" as="geometry">
                        <mxPoint x="-1000" y="549" as="targetPoint"/>
                        <mxPoint x="-1010" y="444" as="sourcePoint"/>
                        <Array as="points">
                            <mxPoint x="-750" y="389"/>
                            <mxPoint x="-780" y="379"/>
                            <mxPoint x="-690" y="409"/>
                        </Array>
                    </mxGeometry>
                </mxCell>
                <mxCell id="343" value="Foreach&lt;br&gt;CS&lt;br&gt;in &lt;b&gt;rg&lt;/b&gt;&lt;br&gt;as &lt;b&gt;cs&lt;/b&gt;" style="shape=hexagon;perimeter=hexagonPerimeter2;whiteSpace=wrap;html=1;fixedSize=1;" parent="1" vertex="1">
                    <mxGeometry x="-810" y="399.75" width="120" height="80.5" as="geometry"/>
                </mxCell>
                <mxCell id="344" value="&lt;b&gt;path&lt;/b&gt;&lt;br&gt;contains&lt;br&gt;SI?" style="rhombus;whiteSpace=wrap;html=1;" parent="1" vertex="1">
                    <mxGeometry x="-641" y="278.5" width="80" height="80" as="geometry"/>
                </mxCell>
                <mxCell id="345" style="edgeStyle=elbowEdgeStyle;rounded=0;html=1;" parent="1" source="343" target="347" edge="1">
                    <mxGeometry relative="1" as="geometry">
                        <mxPoint x="-830" y="555.75" as="targetPoint"/>
                        <mxPoint x="-920" y="590.75" as="sourcePoint"/>
                    </mxGeometry>
                </mxCell>
                <mxCell id="346" value="No" style="edgeStyle=elbowEdgeStyle;rounded=0;html=1;" parent="1" source="344" target="347" edge="1">
                    <mxGeometry relative="1" as="geometry">
                        <mxPoint x="-1000" y="669" as="targetPoint"/>
                        <mxPoint x="-1020" y="669" as="sourcePoint"/>
                        <Array as="points"/>
                    </mxGeometry>
                </mxCell>
                <mxCell id="347" value="Foreach&lt;br&gt;SI&lt;br&gt;in &lt;b&gt;cs&lt;/b&gt;&lt;br&gt;as &lt;b&gt;si&lt;/b&gt;" style="shape=hexagon;perimeter=hexagonPerimeter2;whiteSpace=wrap;html=1;fixedSize=1;" parent="1" vertex="1">
                    <mxGeometry x="-661" y="399.75" width="120" height="80.5" as="geometry"/>
                </mxCell>
                <mxCell id="348" value="" style="edgeStyle=elbowEdgeStyle;rounded=0;html=1;elbow=vertical;" parent="1" source="347" target="351" edge="1">
                    <mxGeometry relative="1" as="geometry">
                        <mxPoint x="-469.88" y="360.25" as="targetPoint"/>
                        <mxPoint x="-540.0042236024846" y="360.25" as="sourcePoint"/>
                        <Array as="points">
                            <mxPoint x="-541" y="431.75"/>
                            <mxPoint x="-471" y="250.75"/>
                            <mxPoint x="-511" y="421.75"/>
                            <mxPoint x="-501" y="439.75"/>
                            <mxPoint x="-510" y="439.75"/>
                            <mxPoint x="-509.88" y="360.25"/>
                            <mxPoint x="-919.88" y="691.25"/>
                            <mxPoint x="-989.88" y="661.25"/>
                            <mxPoint x="-989.88" y="661.25"/>
                            <mxPoint x="-1129.88" y="691.25"/>
                            <mxPoint x="-969.88" y="631.25"/>
                            <mxPoint x="-1099.88" y="701.25"/>
                            <mxPoint x="-1109.88" y="721.25"/>
                        </Array>
                    </mxGeometry>
                </mxCell>
                <mxCell id="351" value="Foreach config parameter in &lt;b&gt;cs&lt;/b&gt; or &lt;b&gt;cg&lt;/b&gt;&amp;nbsp;as&lt;br&gt;&lt;b&gt;param&lt;/b&gt;" style="shape=hexagon;perimeter=hexagonPerimeter2;whiteSpace=wrap;html=1;fixedSize=1;" parent="1" vertex="1">
                    <mxGeometry x="-511" y="399.75" width="120" height="80.5" as="geometry"/>
                </mxCell>
                <mxCell id="354" value="All configuration changes for &quot;path&quot; take effect" style="rounded=1;whiteSpace=wrap;html=1;arcSize=50;fillColor=#d5e8d4;strokeColor=#82b366;" parent="1" vertex="1">
                    <mxGeometry x="-666" y="620" width="180" height="40" as="geometry"/>
                </mxCell>
                <mxCell id="355" style="edgeStyle=elbowEdgeStyle;rounded=0;html=1;fillColor=#d5e8d4;strokeColor=#82b366;" parent="1" source="356" target="354" edge="1">
                    <mxGeometry relative="1" as="geometry">
                        <mxPoint x="-471" y="649.75" as="targetPoint"/>
                        <mxPoint x="-386" y="675.25" as="sourcePoint"/>
                    </mxGeometry>
                </mxCell>
                <mxCell id="356" value="Modules/drivers apply changes" style="rounded=0;whiteSpace=wrap;html=1;" parent="1" vertex="1">
                    <mxGeometry x="-671" y="540" width="190" height="42" as="geometry"/>
                </mxCell>
                <mxCell id="357" style="edgeStyle=elbowEdgeStyle;rounded=0;html=1;" parent="1" source="335" target="356" edge="1">
                    <mxGeometry relative="1" as="geometry">
                        <mxPoint x="-695.1107692307695" y="698.4999999999998" as="targetPoint"/>
                        <mxPoint x="-561" y="500" as="sourcePoint"/>
                        <Array as="points">
                            <mxPoint x="-576" y="520"/>
                            <mxPoint x="-541" y="570"/>
                            <mxPoint x="-374.88" y="629.5"/>
                        </Array>
                    </mxGeometry>
                </mxCell>
                <mxCell id="358" value="Return&lt;br&gt;ENOTFOUND" style="rounded=1;whiteSpace=wrap;html=1;arcSize=50;fillColor=#f8cecc;strokeColor=#b85450;" parent="1" vertex="1">
                    <mxGeometry x="-810" y="60" width="120" height="40" as="geometry"/>
                </mxCell>
                <mxCell id="359" value="Yes" style="edgeStyle=elbowEdgeStyle;rounded=0;html=1;fillColor=#cdeb8b;strokeColor=#36393d;" parent="1" source="338" target="360" edge="1">
                    <mxGeometry x="-0.3333" relative="1" as="geometry">
                        <mxPoint x="-780" y="328.5" as="targetPoint"/>
                        <mxPoint x="-850" y="329" as="sourcePoint"/>
                        <Array as="points">
                            <mxPoint x="-900" y="259"/>
                        </Array>
                        <mxPoint as="offset"/>
                    </mxGeometry>
                </mxCell>
                <mxCell id="360" value="CN exists&lt;br&gt;in registry?" style="rhombus;whiteSpace=wrap;html=1;" parent="1" vertex="1">
                    <mxGeometry x="-940" y="159" width="80" height="80" as="geometry"/>
                </mxCell>
                <mxCell id="361" value="Yes" style="rounded=0;html=1;edgeStyle=elbowEdgeStyle;" parent="1" source="360" target="341" edge="1">
                    <mxGeometry x="-0.3333" relative="1" as="geometry">
                        <mxPoint x="-890" y="249" as="targetPoint"/>
                        <mxPoint x="-890" y="289" as="sourcePoint"/>
                        <mxPoint as="offset"/>
                    </mxGeometry>
                </mxCell>
                <mxCell id="362" value="No" style="edgeStyle=elbowEdgeStyle;rounded=0;html=1;fillColor=#f8cecc;strokeColor=#b85450;" parent="1" source="360" target="358" edge="1">
                    <mxGeometry x="-0.7751" relative="1" as="geometry">
                        <mxPoint x="-890" y="229" as="targetPoint"/>
                        <mxPoint x="-899.9999999999998" y="139" as="sourcePoint"/>
                        <Array as="points">
                            <mxPoint x="-900" y="80"/>
                            <mxPoint x="-900" y="100"/>
                            <mxPoint x="-900" y="90"/>
                            <mxPoint x="-870" y="90"/>
                            <mxPoint x="-900" y="99"/>
                        </Array>
                        <mxPoint as="offset"/>
                    </mxGeometry>
                </mxCell>
                <mxCell id="363" value="Yes" style="edgeStyle=elbowEdgeStyle;rounded=0;html=1;" parent="1" source="341" target="364" edge="1">
                    <mxGeometry x="-0.3333" relative="1" as="geometry">
                        <mxPoint x="-630" y="329" as="targetPoint"/>
                        <mxPoint x="-750" y="280" as="sourcePoint"/>
                        <Array as="points">
                            <mxPoint x="-750" y="259.5"/>
                        </Array>
                        <mxPoint as="offset"/>
                    </mxGeometry>
                </mxCell>
                <mxCell id="364" value="CS exists&lt;br&gt;in registry?" style="rhombus;whiteSpace=wrap;html=1;" parent="1" vertex="1">
                    <mxGeometry x="-790" y="159.5" width="80" height="80" as="geometry"/>
                </mxCell>
                <mxCell id="365" value="Yes" style="rounded=0;html=1;edgeStyle=elbowEdgeStyle;" parent="1" source="364" target="344" edge="1">
                    <mxGeometry x="-0.3333" relative="1" as="geometry">
                        <mxPoint x="-639.9999999999998" y="319" as="targetPoint"/>
                        <mxPoint x="-740" y="289.5" as="sourcePoint"/>
                        <mxPoint as="offset"/>
                    </mxGeometry>
                </mxCell>
                <mxCell id="366" value="No" style="edgeStyle=elbowEdgeStyle;rounded=0;html=1;fillColor=#f8cecc;strokeColor=#b85450;" parent="1" source="364" target="358" edge="1">
                    <mxGeometry x="-0.3445" relative="1" as="geometry">
                        <mxPoint x="-659.9999999999998" y="99.5" as="targetPoint"/>
                        <mxPoint x="-749.9999999999998" y="139.5" as="sourcePoint"/>
                        <Array as="points">
                            <mxPoint x="-750" y="99.5"/>
                        </Array>
                        <mxPoint as="offset"/>
                    </mxGeometry>
                </mxCell>
                <mxCell id="367" value="Yes" style="edgeStyle=elbowEdgeStyle;rounded=0;html=1;" parent="1" source="344" target="368" edge="1">
                    <mxGeometry x="-0.3333" relative="1" as="geometry">
                        <mxPoint x="-479.88" y="329" as="targetPoint"/>
                        <mxPoint x="-599.8799999999998" y="279.5" as="sourcePoint"/>
                        <Array as="points">
                            <mxPoint x="-601" y="250"/>
                            <mxPoint x="-591" y="250"/>
                            <mxPoint x="-600" y="259"/>
                            <mxPoint x="-560" y="269"/>
                        </Array>
                        <mxPoint as="offset"/>
                    </mxGeometry>
                </mxCell>
                <mxCell id="368" value="SI exists&lt;br&gt;in registry?" style="rhombus;whiteSpace=wrap;html=1;" parent="1" vertex="1">
                    <mxGeometry x="-641" y="159.5" width="80" height="80" as="geometry"/>
                </mxCell>
                <mxCell id="369" value="Yes" style="rounded=0;html=1;edgeStyle=elbowEdgeStyle;" parent="1" source="368" target="374" edge="1">
                    <mxGeometry x="-0.8779" relative="1" as="geometry">
                        <mxPoint x="-489.87999999999977" y="319" as="targetPoint"/>
                        <mxPoint x="-589.88" y="289.5" as="sourcePoint"/>
                        <mxPoint as="offset"/>
                        <Array as="points">
                            <mxPoint x="-531" y="319"/>
                            <mxPoint x="-451" y="330"/>
                        </Array>
                    </mxGeometry>
                </mxCell>
                <mxCell id="370" value="No" style="edgeStyle=elbowEdgeStyle;rounded=0;html=1;fillColor=#f8cecc;strokeColor=#b85450;" parent="1" source="368" target="358" edge="1">
                    <mxGeometry x="-0.7685" relative="1" as="geometry">
                        <mxPoint x="-509.87999999999977" y="119.5" as="targetPoint"/>
                        <mxPoint x="-589.88" y="289.5" as="sourcePoint"/>
                        <Array as="points">
                            <mxPoint x="-601" y="80"/>
                            <mxPoint x="-601" y="100"/>
                            <mxPoint x="-591" y="100"/>
                            <mxPoint x="-600" y="100"/>
                            <mxPoint x="-600" y="100"/>
                            <mxPoint x="-600" y="100"/>
                            <mxPoint x="-641" y="100"/>
                            <mxPoint x="-600" y="90"/>
                            <mxPoint x="-599.88" y="119.5"/>
                        </Array>
                        <mxPoint as="offset"/>
                    </mxGeometry>
                </mxCell>
                <mxCell id="372" value="Yes" style="rounded=0;html=1;edgeStyle=elbowEdgeStyle;" parent="1" source="374" target="373" edge="1">
                    <mxGeometry x="-0.3333" relative="1" as="geometry">
                        <mxPoint x="-451.33333333333326" y="239.49999999999977" as="targetPoint"/>
                        <mxPoint x="-139.8571428571429" y="98.35714285714289" as="sourcePoint"/>
                        <mxPoint as="offset"/>
                    </mxGeometry>
                </mxCell>
                <mxCell id="373" value="&lt;b&gt;path&lt;/b&gt;&lt;br&gt;element is&lt;br&gt;CG?" style="rhombus;whiteSpace=wrap;html=1;" parent="1" vertex="1">
                    <mxGeometry x="-491" y="159" width="80" height="80" as="geometry"/>
                </mxCell>
                <mxCell id="374" value="&lt;font style=&quot;font-size: 12px&quot;&gt;has &lt;br&gt;next&amp;nbsp;&lt;b&gt;path&amp;nbsp;&lt;br&gt;&lt;/b&gt;element?&lt;br&gt;&lt;br&gt;&lt;/font&gt;" style="rhombus;whiteSpace=wrap;html=1;verticalAlign=middle;horizontal=1;" parent="1" vertex="1">
                    <mxGeometry x="-491" y="278.5" width="80" height="80" as="geometry"/>
                </mxCell>
                <mxCell id="375" value="Yes" style="rounded=0;html=1;edgeStyle=elbowEdgeStyle;" parent="1" source="373" target="374" edge="1">
                    <mxGeometry x="-0.3333" relative="1" as="geometry">
                        <mxPoint x="-130.83333333333326" y="150" as="targetPoint"/>
                        <mxPoint x="-130.83333333333326" y="109.83333333333303" as="sourcePoint"/>
                        <mxPoint as="offset"/>
                        <Array as="points">
                            <mxPoint x="-381" y="199"/>
                            <mxPoint x="-381" y="230"/>
                            <mxPoint x="-71" y="160"/>
                        </Array>
                    </mxGeometry>
                </mxCell>
                <mxCell id="376" value="No" style="rounded=0;html=1;edgeStyle=elbowEdgeStyle;" parent="1" source="373" target="377" edge="1">
                    <mxGeometry x="-0.3333" relative="1" as="geometry">
                        <mxPoint x="-51" y="390" as="targetPoint"/>
                        <mxPoint x="-91.00000000000023" y="270" as="sourcePoint"/>
                        <mxPoint as="offset"/>
                        <Array as="points">
                            <mxPoint x="-451" y="70"/>
                            <mxPoint x="-201" y="190"/>
                            <mxPoint x="-141" y="340"/>
                            <mxPoint x="19" y="370"/>
                            <mxPoint x="-61" y="170"/>
                        </Array>
                    </mxGeometry>
                </mxCell>
                <mxCell id="377" value="&lt;b&gt;path&lt;/b&gt;&lt;br&gt;elemet is&lt;br&gt;&lt;b&gt;param&lt;/b&gt;?" style="rhombus;whiteSpace=wrap;html=1;" parent="1" vertex="1">
                    <mxGeometry x="-491" y="40" width="80" height="80" as="geometry"/>
                </mxCell>
                <mxCell id="378" value="Yes" style="rounded=0;html=1;edgeStyle=elbowEdgeStyle;" parent="1" source="377" edge="1">
                    <mxGeometry x="-0.3333" relative="1" as="geometry">
                        <mxPoint x="-296" y="390" as="targetPoint"/>
                        <mxPoint x="-131.00000000000023" y="310" as="sourcePoint"/>
                        <mxPoint as="offset"/>
                        <Array as="points">
                            <mxPoint x="-296" y="250"/>
                            <mxPoint x="29" y="380"/>
                            <mxPoint x="29" y="380"/>
                            <mxPoint x="-51" y="180"/>
                        </Array>
                    </mxGeometry>
                </mxCell>
                <mxCell id="379" value="No" style="rounded=0;html=1;edgeStyle=elbowEdgeStyle;" parent="1" source="374" target="351" edge="1">
                    <mxGeometry x="0.0424" relative="1" as="geometry">
                        <mxPoint x="-401" y="328.5" as="targetPoint"/>
                        <mxPoint x="-401" y="140" as="sourcePoint"/>
                        <mxPoint as="offset"/>
                        <Array as="points">
                            <mxPoint x="-451" y="380"/>
                            <mxPoint x="-61" y="170"/>
                        </Array>
                    </mxGeometry>
                </mxCell>
                <mxCell id="380" value="No" style="edgeStyle=elbowEdgeStyle;rounded=0;html=1;fillColor=#f8cecc;strokeColor=#b85450;" parent="1" source="377" target="358" edge="1">
                    <mxGeometry x="-0.8662" relative="1" as="geometry">
                        <mxPoint x="-680" y="110" as="targetPoint"/>
                        <mxPoint x="-590" y="169.6199999999999" as="sourcePoint"/>
                        <Array as="points">
                            <mxPoint x="-531" y="80"/>
                            <mxPoint x="-601" y="100"/>
                            <mxPoint x="-590" y="110"/>
                            <mxPoint x="-631" y="110"/>
                            <mxPoint x="-590" y="100"/>
                            <mxPoint x="-589.88" y="129.5"/>
                        </Array>
                        <mxPoint as="offset"/>
                    </mxGeometry>
                </mxCell>
                <mxCell id="381" value="" style="edgeStyle=elbowEdgeStyle;rounded=0;html=1;" parent="1" target="383" edge="1">
                    <mxGeometry relative="1" as="geometry">
                        <mxPoint x="-360.9400000000003" y="409.81000000000006" as="targetPoint"/>
                        <mxPoint as="offset"/>
                        <mxPoint x="-390.99962732919266" y="439.81000000000006" as="sourcePoint"/>
                        <Array as="points">
                            <mxPoint x="-380.94000000000005" y="439.81000000000006"/>
                            <mxPoint x="-280.94000000000005" y="329.81000000000006"/>
                            <mxPoint x="-380.94000000000005" y="439.81000000000006"/>
                            <mxPoint x="-370.94000000000005" y="439.81000000000006"/>
                            <mxPoint x="-370.94000000000005" y="449.81000000000006"/>
                            <mxPoint x="-370.94000000000005" y="437.81000000000006"/>
                            <mxPoint x="-230.94000000000005" y="417.81000000000006"/>
                            <mxPoint x="-320.94000000000005" y="463.81000000000006"/>
                            <mxPoint x="-500.94000000000005" y="359.81000000000006"/>
                            <mxPoint x="-394.82000000000005" y="318.81000000000006"/>
                            <mxPoint x="-439.82000000000005" y="328.81000000000006"/>
                        </Array>
                    </mxGeometry>
                </mxCell>
                <mxCell id="382" value="export_func(&lt;b&gt;param&lt;/b&gt;, &lt;b&gt;value&lt;/b&gt;)" style="rounded=0;whiteSpace=wrap;html=1;" parent="1" vertex="1">
                    <mxGeometry x="-360.94000000000005" y="450.0000000000001" width="160" height="40" as="geometry"/>
                </mxCell>
                <mxCell id="383" value="get &lt;b&gt;value&lt;/b&gt; of&amp;nbsp;&lt;b&gt;param&lt;/b&gt;&amp;nbsp;from &lt;b&gt;si&lt;/b&gt;" style="rounded=0;whiteSpace=wrap;html=1;" parent="1" vertex="1">
                    <mxGeometry x="-360.94000000000005" y="389.87" width="160" height="40" as="geometry"/>
                </mxCell>
                <mxCell id="384" value="" style="edgeStyle=elbowEdgeStyle;rounded=0;html=1;" parent="1" source="383" target="382" edge="1">
                    <mxGeometry relative="1" as="geometry">
                        <mxPoint x="-350.94000000000005" y="454.62" as="targetPoint"/>
                        <mxPoint as="offset"/>
                        <mxPoint x="-393.94000000000005" y="454.62" as="sourcePoint"/>
                    </mxGeometry>
                </mxCell>
                <mxCell id="385" value="&lt;div style=&quot;text-align: left&quot;&gt;&lt;span&gt;registry_export(&lt;/span&gt;&lt;/div&gt;&lt;div style=&quot;text-align: left&quot;&gt;&lt;b&gt;&amp;nbsp; &amp;nbsp; path&lt;/b&gt;&lt;span style=&quot;text-align: left&quot;&gt;,&lt;/span&gt;&lt;/div&gt;&lt;span style=&quot;text-align: left&quot;&gt;&amp;nbsp; &amp;nbsp;&amp;nbsp;&lt;/span&gt;&lt;b&gt;&amp;amp;export_func&lt;/b&gt;&lt;span style=&quot;text-align: left&quot;&gt;,&lt;/span&gt;&lt;br style=&quot;text-align: left&quot;&gt;&lt;div style=&quot;text-align: left&quot;&gt;&lt;span&gt;)&lt;/span&gt;&lt;/div&gt;" style="rounded=1;whiteSpace=wrap;html=1;arcSize=50;fillColor=#fff2cc;strokeColor=#d6b656;" parent="1" vertex="1">
                    <mxGeometry x="-1120" y="280.87" width="139" height="75.25" as="geometry"/>
                </mxCell>
            </root>
        </mxGraphModel>
    </diagram>
</mxfile>